<?xml version="1.0" standalone="no"?>
<!DOCTYPE svg PUBLIC "-//W3C//DTD SVG 20010904//EN"
 "http://www.w3.org/TR/2001/REC-SVG-20010904/DTD/svg10.dtd">
<svg version="1.0" xmlns="http://www.w3.org/2000/svg"
 width="128.000000pt" height="128.000000pt" viewBox="0 0 128.000000 128.000000"
 preserveAspectRatio="xMidYMid meet">
<metadata>
Created by potrace 1.11, written by Peter Selinger 2001-2013
</metadata>
<g transform="translate(0.000000,128.000000) scale(0.100000,-0.100000)"
fill="#000000" stroke="none">
<path d="M550 1163 c-14 -3 -29 -8 -35 -13 -5 -4 -26 -12 -45 -19 -23 -7 -67
-43 -121 -99 -97 -98 -119 -144 -122 -258 -2 -52 2 -66 17 -77 15 -11 17 -17
7 -35 -18 -33 -13 -63 19 -119 17 -29 33 -53 36 -53 2 0 -6 19 -20 42 -26 45
-27 101 -1 92 9 -4 11 -18 8 -45 -4 -25 -2 -39 6 -39 6 0 11 5 11 12 0 9 3 9
12 0 18 -18 33 -15 18 3 -10 12 -10 19 -2 27 9 9 12 7 14 -8 2 -27 4 -37 12
-56 10 -21 0 -38 -21 -38 -15 0 -15 -2 -1 -17 9 -10 28 -42 42 -70 23 -45 26
-63 23 -128 -3 -66 -1 -77 18 -95 37 -35 119 -60 194 -60 65 0 72 2 118 38 75
60 77 63 69 141 -4 49 -2 81 9 111 19 54 19 61 -1 53 -11 -4 -27 6 -50 31 -32
35 -57 45 -68 27 -3 -5 -15 -7 -25 -4 -18 5 -68 -20 -83 -42 -4 -5 -8 -22 -8
-37 0 -31 -17 -45 -33 -29 -6 6 -15 7 -22 1 -7 -6 -20 -1 -38 15 -14 14 -30
25 -35 25 -14 0 -31 77 -20 88 6 6 3 15 -6 25 -20 20 -11 45 20 53 13 3 24 12
24 20 0 7 8 18 18 23 13 8 8 10 -25 11 -23 0 -44 4 -48 10 -3 6 -15 5 -30 -2
-20 -9 -29 -8 -45 7 -16 14 -23 15 -34 6 -8 -7 -12 -19 -9 -28 5 -13 2 -13
-14 -5 -15 8 -19 18 -15 42 3 23 17 40 58 69 30 21 70 42 90 45 19 4 43 15 53
25 10 10 40 26 67 36 27 10 55 23 62 29 8 5 23 11 33 13 11 2 30 10 43 18 34
22 68 10 106 -36 35 -44 35 -44 0 -57 -19 -7 -9 -10 50 -16 41 -3 75 -8 76 -9
1 -1 5 -28 9 -59 l7 -57 -39 -11 c-21 -7 -71 -10 -110 -8 l-71 3 13 -26 c12
-22 19 -25 46 -21 30 4 31 6 14 18 -18 13 -17 14 9 14 15 0 25 -4 22 -9 -3 -5
5 -29 19 -53 14 -23 25 -37 25 -29 0 8 6 11 15 7 10 -3 15 1 15 14 0 25 17 35
23 13 3 -10 5 0 6 22 1 22 8 51 16 65 8 14 14 37 15 52 0 15 5 30 10 33 6 3
10 38 10 77 0 66 -3 74 -41 132 -63 92 -88 116 -124 116 -21 0 -40 9 -55 25
-36 38 -108 53 -190 38z m176 -718 c-22 -16 -54 -19 -83 -8 -14 6 -11 9 17 14
19 4 46 7 60 7 24 1 24 1 6 -13z m-116 -15 c0 -5 -5 -10 -11 -10 -5 0 -7 5 -4
10 3 6 8 10 11 10 2 0 4 -4 4 -10z m143 -56 c9 -3 17 -11 17 -19 0 -9 -20 -16
-65 -20 -36 -4 -68 -11 -71 -16 -5 -8 -64 16 -64 26 0 2 21 11 47 18 52 15
108 20 136 11z"/>
<path d="M734 776 c-3 -8 -4 -25 -2 -38 3 -21 8 -23 58 -23 50 0 55 2 58 23 2
13 -2 30 -8 38 -17 19 -99 19 -106 0z"/>
<path d="M501 753 c-1 -7 -10 -13 -21 -13 -11 0 -20 -6 -20 -14 0 -19 23 -33
28 -17 3 9 7 9 18 0 11 -9 14 -8 13 2 -1 20 -17 57 -18 42z"/>
<path d="M580 650 c11 -11 20 -28 20 -37 0 -15 2 -16 10 -3 13 20 13 33 0 25
-17 -11 -11 7 8 21 15 12 13 13 -20 14 l-38 0 20 -20z"/>
<path d="M697 599 c-10 -6 -26 -8 -36 -4 -11 3 -22 1 -26 -5 -4 -6 -13 -9 -21
-6 -17 7 -19 -18 -1 -31 20 -17 77 -24 77 -11 0 9 3 9 12 0 19 -19 23 -15 25
22 3 40 -5 49 -30 35z"/>
<path d="M876 525 c-3 -9 -11 -13 -17 -9 -8 5 -9 3 -4 -5 6 -10 11 -9 23 3 9
8 13 18 10 21 -3 3 -8 -1 -12 -10z"/>
<path d="M811 334 c0 -11 3 -14 6 -6 3 7 2 16 -1 19 -3 4 -6 -2 -5 -13z"/>
</g>
</svg>
