<?xml version="1.0" standalone="no"?>
<!DOCTYPE svg PUBLIC "-//W3C//DTD SVG 20010904//EN"
 "http://www.w3.org/TR/2001/REC-SVG-20010904/DTD/svg10.dtd">
<svg version="1.0" xmlns="http://www.w3.org/2000/svg"
 width="128.000000pt" height="128.000000pt" viewBox="0 0 128.000000 128.000000"
 preserveAspectRatio="xMidYMid meet">
<metadata>
Created by potrace 1.11, written by Peter Selinger 2001-2013
</metadata>
<g transform="translate(0.000000,128.000000) scale(0.100000,-0.100000)"
fill="#000000" stroke="none">
<path d="M550 1163 c-14 -3 -29 -8 -35 -13 -5 -4 -26 -12 -45 -19 -23 -7 -67
-43 -121 -99 -97 -98 -119 -144 -122 -258 -2 -52 2 -66 17 -77 15 -11 17 -17
7 -35 -6 -11 -11 -31 -11 -44 0 -30 61 -133 95 -160 43 -34 68 -108 69 -209 1
-41 6 -63 20 -78 30 -33 118 -61 195 -61 65 0 72 2 118 38 67 54 70 58 76 138
6 73 40 198 62 224 13 16 21 45 34 120 4 25 13 55 19 67 7 12 12 33 12 47 0
14 5 28 10 31 6 3 10 38 10 77 0 66 -3 74 -41 132 -63 92 -88 116 -124 116
-21 0 -40 9 -55 25 -36 38 -108 53 -190 38z m354 -404 c10 -72 1 -79 -98 -79
-75 0 -85 2 -106 25 -29 31 -39 31 -65 0 -19 -23 -27 -25 -122 -28 -55 -1
-104 1 -109 5 -7 8 -19 107 -13 109 12 4 262 16 375 17 l131 2 7 -51z"/>
<path d="M732 788 c-16 -16 -15 -63 2 -77 8 -7 37 -11 68 -9 52 3 53 3 56 38
3 24 -2 38 -14 47 -22 16 -96 17 -112 1z"/>
<path d="M462 778 c-7 -7 -12 -24 -12 -38 0 -32 17 -50 46 -50 32 0 37 13 23
60 -12 41 -33 52 -57 28z"/>
<path d="M535 781 c-3 -5 -1 -12 4 -15 4 -3 11 -20 15 -37 4 -22 11 -30 23
-27 37 7 22 88 -17 88 -10 0 -21 -4 -25 -9z"/>
</g>
</svg>
